<?xml version="1.0" encoding="UTF-8"?><svg xmlns="http://www.w3.org/2000/svg" viewBox="0 0 54.32 54.32"><defs><style>.d{fill:#fff;}</style></defs><g id="a"/><g id="b"><g id="c"><path class="d" d="M21.3,6.99c1.25,1.91,3.41,3.17,5.86,3.17s4.6-1.26,5.85-3.17c1.35,.39,2.66,.92,3.9,1.57-.42,2.24,.26,4.65,2.03,6.34,1.31,1.26,3.03,1.95,4.85,1.95,.53,0,1.06-.06,1.57-.18,.84,1.46,1.5,3.01,1.97,4.63-1.91,1.25-3.17,3.41-3.17,5.86s1.26,4.6,3.17,5.85c-.39,1.35-.92,2.65-1.57,3.9-.42-.08-.86-.12-1.3-.12-1.89,0-3.73,.78-5.05,2.15-1.7,1.76-2.28,4.19-1.77,6.42-1.46,.84-3.01,1.5-4.63,1.97-1.25-1.91-3.41-3.17-5.86-3.17s-4.6,1.26-5.85,3.17c-1.35-.39-2.66-.92-3.9-1.57,.42-2.24-.26-4.65-2.03-6.34-1.31-1.26-3.03-1.95-4.85-1.95-.53,0-1.06,.06-1.57,.18-.84-1.46-1.5-3.01-1.97-4.63,1.91-1.25,3.17-3.41,3.17-5.86s-1.26-4.6-3.17-5.85c.39-1.35,.92-2.65,1.57-3.9,.42,.08,.86,.12,1.3,.12,1.89,0,3.73-.78,5.05-2.15,1.7-1.76,2.28-4.19,1.77-6.42,1.46-.84,3.01-1.5,4.63-1.97m5.86,32.17c6.62,0,12-5.38,12-12s-5.38-12-12-12-12,5.38-12,12,5.38,12,12,12M30.03,2.33c.08,.27,.13,.54,.13,.83,0,1.66-1.34,3-3,3s-3-1.34-3-3c0-.29,.05-.57,.13-.83-4.93,.56-9.42,2.55-13.05,5.55,.25,.13,.48,.28,.69,.48,1.19,1.15,1.23,3.05,.08,4.24-.59,.61-1.38,.92-2.16,.92s-1.5-.28-2.08-.84c-.21-.2-.37-.43-.51-.67-2.66,3.49-4.42,7.69-4.94,12.27,.27-.08,.54-.13,.83-.13,1.66,0,3,1.34,3,3s-1.34,3-3,3c-.29,0-.57-.05-.83-.13,.56,4.93,2.55,9.42,5.55,13.05,.13-.25,.28-.48,.48-.69,.59-.61,1.38-.92,2.16-.92s1.5,.28,2.08,.84c1.19,1.15,1.23,3.05,.08,4.24-.2,.21-.43,.37-.67,.51,3.49,2.66,7.69,4.42,12.27,4.94-.08-.27-.13-.54-.13-.83,0-1.66,1.34-3,3-3s3,1.34,3,3c0,.29-.05,.57-.13,.83,4.93-.56,9.42-2.55,13.05-5.55-.25-.13-.48-.28-.69-.48-1.19-1.15-1.23-3.05-.08-4.24,.59-.61,1.38-.92,2.16-.92s1.5,.28,2.08,.84c.21,.2,.37,.43,.51,.67,2.66-3.49,4.42-7.69,4.94-12.27-.27,.08-.54,.13-.83,.13-1.66,0-3-1.34-3-3s1.34-3,3-3c.29,0,.57,.05,.83,.13-.56-4.93-2.55-9.42-5.55-13.05-.13,.25-.28,.48-.48,.69-.59,.61-1.38,.92-2.16,.92s-1.5-.28-2.08-.84c-1.19-1.15-1.23-3.05-.08-4.24,.2-.21,.43-.37,.67-.51-3.49-2.66-7.69-4.42-12.27-4.94h0Zm-2.87,32.83c-4.42,0-8-3.58-8-8s3.58-8,8-8,8,3.58,8,8-3.58,8-8,8h0Z"/></g></g></svg>