<?xml version="1.0" encoding="UTF-8"?><svg xmlns="http://www.w3.org/2000/svg" viewBox="0 0 38.02 49.9"><defs><style>.d{fill:#fff;}</style></defs><g id="a"/><g id="b"><g id="c"><path class="d" d="M4.68,49.9c-.64-.22-1.32-.36-1.9-.69C.92,48.17,0,46.54,0,44.41c0-4.87,0-9.75,0-14.62,0-7.07,.02-14.13,.02-21.2,0-2.36,.99-4.16,3.15-5.16,.7-.32,1.52-.41,2.3-.5,.75-.08,1.52-.02,2.3-.02,.01-.25,.01-.46,.03-.67C7.96,.93,8.97,0,10.31,0c5.8,0,11.6,0,17.4,0,1.47,0,2.48,1,2.52,2.46,0,.13,0,.26,0,.46,.38,0,.73-.02,1.08,0,.89,.05,1.8,0,2.66,.19,2.35,.53,3.99,2.63,4.04,5.04,.02,1.15,0,2.31,0,3.46-.01,10.87-.02,21.73-.03,32.6,0,2.43-1.05,4.21-3.27,5.24-.43,.2-.92,.3-1.38,.44H4.68ZM7.74,5.85c-.66,0-1.34,0-2.02,0-1.8,0-2.77,.97-2.77,2.76-.01,11.91-.02,23.81-.03,35.72,0,1.64,1,2.65,2.63,2.65,8.95,0,17.9,0,26.85,0,.23,0,.46,0,.68-.05,1.26-.26,1.97-1.24,1.97-2.69,.01-11.55,.02-23.1,.03-34.65,0-.47,.01-.94,0-1.41-.04-1.02-.71-2.02-1.7-2.19-1.02-.18-2.08-.13-3.11-.19-.03,.17-.04,.21-.04,.26-.07,1.85-.97,2.71-2.82,2.71-2.63,0-5.26,0-7.89,0-3.05,0-6.11,0-9.16,0-1.15,0-2.06-.62-2.39-1.65-.12-.38-.14-.79-.22-1.28Zm3.01-.03H27.27V2.96H10.75v2.86Z"/><path class="d" d="M24.76,36.06c1.67,0,3.34,0,5.01,0,.96,0,1.61,.59,1.62,1.44,0,.88-.65,1.48-1.63,1.48-3.36,0-6.72,0-10.07,0-.98,0-1.65-.61-1.65-1.47,0-.86,.68-1.45,1.66-1.45,1.69,0,3.37,0,5.06,0Z"/><path class="d" d="M24.69,19.49c-1.67,0-3.34,0-5.01,0-.97,0-1.65-.62-1.64-1.48,0-.84,.68-1.45,1.62-1.45,3.36,0,6.72,0,10.08,0,.94,0,1.61,.61,1.62,1.45,0,.86-.67,1.47-1.65,1.47-1.67,0-3.34,0-5.01,0Z"/><path class="d" d="M24.68,29.24c-1.66,0-3.31,0-4.97,0-.99,0-1.66-.58-1.67-1.44-.01-.88,.67-1.48,1.68-1.48,3.34,0,6.69,0,10.03,0,1.12,0,1.84,.9,1.53,1.9-.2,.63-.75,1.02-1.49,1.03-1.7,0-3.41,0-5.11,0Z"/><path class="d" d="M9.84,27.99c1.17-1.17,2.22-2.24,3.3-3.3,.21-.21,.48-.4,.76-.5,.6-.22,1.28,.05,1.62,.57,.37,.55,.37,1.27-.1,1.76-1.5,1.53-3.01,3.05-4.55,4.54-.55,.53-1.34,.53-1.9,.01-.69-.63-1.36-1.3-2-1.99-.53-.58-.45-1.46,.1-1.98,.53-.51,1.38-.56,1.95-.05,.3,.26,.53,.61,.82,.95Z"/><path class="d" d="M9.95,37.77c.26-.32,.46-.6,.7-.84,.88-.89,1.75-1.78,2.65-2.65,.6-.58,1.5-.55,2.06,.03,.55,.56,.58,1.44,0,2.02-1.47,1.49-2.95,2.98-4.44,4.44-.6,.58-1.4,.57-2.02,0-.65-.61-1.29-1.24-1.89-1.89-.55-.59-.51-1.48,.05-2.02,.56-.54,1.42-.56,2.03-.01,.27,.25,.51,.54,.87,.92Z"/><path class="d" d="M9.91,17.57c.33-.39,.56-.69,.82-.96,.85-.87,1.71-1.74,2.59-2.58,.58-.56,1.47-.53,2.02,0,.56,.55,.61,1.44,.05,2.02-1.47,1.51-2.97,3-4.47,4.48-.59,.58-1.41,.56-2.02,0-.64-.6-1.26-1.22-1.86-1.86-.56-.59-.55-1.46,0-2.02,.56-.58,1.44-.61,2.06-.03,.27,.25,.49,.56,.82,.95Z"/></g></g></svg>